<svg xmlns="http://www.w3.org/2000/svg"  
     width="100" height="100" viewBox="0 0 300.222 300.221">
  <g fill="none" stroke="#828282" stroke-width="3">
    <path d="M299.201,93.188c-14.688-25.704-29.988-50.184-43.452-76.5c-3.06-6.12-12.852-4.284-14.688,1.836
      c-7.345,26.316-16.524,58.14-15.301,85.068c0,6.12,6.732,7.344,10.404,4.284c0.612,0.612,1.836,0.612,3.061,0.612
      c6.731-0.612,13.464-1.836,19.584-2.448c22.031,55.692,39.779,152.388-44.677,158.508c-8.567,0.612-15.3-1.224-20.195-4.896
      c11.628-9.792,21.42-22.031,26.315-36.107c6.732-18.36-6.731-57.528-31.824-46.512c-20.195,9.18-24.479,45.899-20.808,64.26
      c1.224,5.508,3.06,10.403,4.896,14.688c-1.837,1.225-3.061,1.836-4.896,3.061c-15.912,9.18-34.883,13.464-53.244,12.852
      c-13.464-0.612-21.42-7.956-26.316-17.748c16.524-8.567,29.988-22.032,33.66-36.107c7.344-29.988-31.212-49.572-47.124-20.196
      c-7.344,13.464-8.568,32.436-4.284,48.96c-0.612,0.612-1.836,0.612-2.448,1.224c-52.632,21.42-68.544-45.288-38.556-78.336
      c2.448-3.06-0.612-7.956-4.284-5.508c-36.108,25.704-33.048,80.784,8.568,98.532c11.016,4.896,26.928,3.06,41.616-1.836
      c6.732,13.464,17.748,23.868,33.66,25.704c23.868,3.06,51.408-3.673,73.44-17.137c12.852,10.404,31.212,12.853,50.184,8.568
      c80.172-15.912,65.484-113.832,42.228-171.972c6.12-0.612,11.629-0.612,17.748-0.612
      C297.978,105.427,302.261,98.083,299.201,93.188z"/>
  </g>
</svg>
